:SAMPLES-PER-SECOND 30
:FULLY-SPECIFIED
:DEGREES
568
root  8.50075 39.4626 -61.2827 177.438 7.98221 -179.453
RightUpLeg  -4.54255 -2.28992 3.099
RightLeg  14.3372 -0.469934 -1.25501
RightFoot  -7.69371 0.0486989 -0.602761
RightToes  -5.82073e-011 -3.18055e-015 -2.98177e-016
Spine  7.7977 -0.489811 2.28994
Spine1  2.85446 -0.66105 3.52726
HEad  -15.5949 5.8397 3.98111
LeftShoulder1  -3.88251e-019 9.70628e-020 -3.87848e-018
LeftArm  -29.8359 59.5649 -66.3235
LeftForeArm  -14.1409 -6.3795 -0.809832
LeftHand  -0.49708 0.390115 12.6373
RightShoulder  6.83464 10.0936 32.9174
RightArm  8.61737 -48.1718 -5.38655
RightForeArm  -0.824546 3.24962 -5.7934
RightHand  -0.198081 -4.24761 -17.9376
LeftUpLeg  -6.40213 1.36127 -0.673031
LeftLeg  17.6031 12.8162 10.1943
LeftFoot  -6.12777 0.0826522 -1.6321
LeftToes  -2.27483e-011 -5.53417e-011 9.36564e-012
569
root  8.49719 39.423 -61.4163 177.217 8.06163 -178.763
RightUpLeg  -3.70609 -1.94822 3.74236
RightLeg  13.9648 -0.838315 -1.11578
RightFoot  -7.80555 0.0420064 -0.455798
RightToes  -5.82073e-011 -3.18055e-015 -2.98177e-016
Spine  7.18215 -0.415754 2.66912
Spine1  3.46564 -0.618684 4.06572
HEad  -14.8986 5.7605 3.58833
LeftShoulder1  -3.88251e-019 9.70628e-020 -3.87848e-018
LeftArm  -30.9092 60.6597 -66.1548
LeftForeArm  -20.2701 -3.80199 -0.700838
LeftHand  -0.304693 2.2299 12.6865
RightShoulder  6.86827 10.0869 33.1088
RightArm  6.87594 -47.5642 -2.20961
RightForeArm  -2.99009 4.26994 -5.98131
RightHand  -0.00295947 -5.49342 -15.901
LeftUpLeg  -6.01616 -2.3803 -0.152932
LeftLeg  18.5932 15.8648 11.6935
LeftFoot  -6.46679 0.192342 -3.61883
LeftToes  -2.27483e-011 -5.53417e-011 9.36564e-012
570
root  8.50681 39.4252 -61.5312 177.093 8.68713 -178.121
RightUpLeg  -2.83751 -1.47147 4.47945
RightLeg  13.0347 -0.787839 -0.894343
RightFoot  -7.60681 0.0504828 -0.512627
RightToes  -5.82073e-011 -3.18055e-015 -2.98177e-016
Spine  6.88017 -0.034669 3.00257
Spine1  3.52609 -0.208916 4.15794
HEad  -14.0861 5.0939 3.57521
LeftShoulder1  -3.88251e-019 9.70628e-020 -3.87848e-018
LeftArm  -30.9273 61.3118 -65.543
LeftForeArm  -20.3266 -1.26463 -0.793264
LeftHand  -0.206044 2.92365 11.3208
RightShoulder  6.934 10.1114 33.4009
RightArm  6.51584 -47.5211 0.651623
RightForeArm  -5.19601 7.04309 -5.8995
RightHand  0.0320536 -5.76872 -16.3751
LeftUpLeg  -5.47879 -1.69295 0.716106
LeftLeg  18.478 15.346 11.4701
LeftFoot  -6.44976 0.252279 -4.64548
LeftToes  -2.27483e-011 -5.53417e-011 9.36564e-012
571
root  8.51321 39.4823 -61.6077 177.236 9.54707 -177.857
RightUpLeg  -2.28382 -0.921612 4.90462
RightLeg  11.7829 -0.518654 -0.650268
RightFoot  -7.03632 0.0625727 -0.623773
RightToes  -5.82073e-011 -3.18055e-015 -2.98177e-016
Spine  6.36318 0.552837 2.51292
Spine1  3.58923 0.243442 4.61932
HEad  -13.5301 4.74219 3.511
LeftShoulder1  -3.88251e-019 9.70628e-020 -3.87848e-018
LeftArm  -30.4978 61.7774 -64.9857
LeftForeArm  -17.0397 -0.0779792 -0.846499
LeftHand  -0.153358 3.09275 8.99908
RightShoulder  7.01966 10.1686 33.7216
RightArm  6.35154 -47.113 4.06895
RightForeArm  -6.3298 10.0589 -5.65
RightHand  -0.0958888 -4.90933 -17.9944
LeftUpLeg  -5.04995 1.92511 1.42118
LeftLeg  17.5384 12.7908 10.1459
LeftFoot  -6.11281 0.216974 -3.82852
LeftToes  -2.27483e-011 -5.53417e-011 9.36564e-012
572
root  8.48369 39.5508 -61.6446 177.612 10.0567 -178.015
RightUpLeg  -2.2675 -0.619472 4.83781
RightLeg  10.8453 -0.313074 -0.554946
RightFoot  -6.48392 0.0617026 -0.615116
RightToes  -5.82073e-011 -3.18055e-015 -2.98177e-016
Spine  5.89386 0.844058 2.21844
Spine1  3.30811 0.605783 4.07153
HEad  -12.921 4.21748 3.55986
LeftShoulder1  -3.88251e-019 9.70628e-020 -3.87848e-018
LeftArm  -29.142 62.1828 -63.7309
LeftForeArm  -13.392 -0.166898 -0.877169
LeftHand  -0.120635 3.10633 7.00497
RightShoulder  7.26148 10.3232 34.6337
RightArm  6.83698 -46.3572 7.7896
RightForeArm  -6.48789 13.1841 -5.63261
RightHand  -0.281014 -3.81052 -19.1041
LeftUpLeg  -4.86579 4.97716 1.4953
LeftLeg  16.4752 10.751 8.98854
LeftFoot  -5.8588 0.165123 -2.85937
LeftToes  -2.27483e-011 -5.53417e-011 9.36564e-012
573
root  8.41609 39.6107 -61.6555 177.991 10.0391 -178.346
RightUpLeg  -2.44354 -0.543429 4.48751
RightLeg  10.1726 -0.374864 -0.560416
RightFoot  -6.07375 0.0540751 -0.54609
RightToes  -5.82073e-011 -3.18055e-015 -2.98177e-016
Spine  5.69552 0.845301 1.83591
Spine1  2.86407 0.659156 3.61192
HEad  -13.2243 3.6329 3.31163
LeftShoulder1  -3.88251e-019 9.70628e-020 -3.87848e-018
LeftArm  -27.5948 62.5034 -62.7642
LeftForeArm  -10.9619 -0.577153 -1.29597
LeftHand  -0.129286 2.69927 6.21235
RightShoulder  7.4128 10.4182 35.1972
RightArm  9.12769 -45.481 12.0618
RightForeArm  -6.01416 16.2933 -6.46911
RightHand  -0.469332 -2.61717 -18.7615
LeftUpLeg  -4.78424 5.51673 1.01636
LeftLeg  15.3968 10.5315 8.42232
LeftFoot  -5.52097 0.158471 -2.61794
LeftToes  -2.27483e-011 -5.53417e-011 9.36564e-012
574
root  8.3293 39.6657 -61.6552 178.208 9.74226 -178.58
RightUpLeg  -2.4046 -0.526714 4.16
RightLeg  9.43317 -0.630149 -0.51311
RightFoot  -5.62918 0.0485794 -0.503678
RightToes  -5.82073e-011 -3.18055e-015 -2.98177e-016
Spine  5.75722 0.80272 1.75892
Spine1  2.48826 0.70374 3.01598
HEad  -14.001 2.71421 2.96197
LeftShoulder1  -3.88251e-019 9.70628e-020 -3.87848e-018
LeftArm  -26.4826 62.2863 -62.466
LeftForeArm  -9.32393 -1.94731 -1.62493
LeftHand  -0.197975 1.70633 6.85083
RightShoulder  7.43673 10.4403 35.2694
RightArm  13.8867 -44.5602 16.4966
RightForeArm  -5.64346 19.0797 -8.4186
RightHand  -0.657341 -1.12895 -17.3544
LeftUpLeg  -4.6584 4.2748 0.458505
LeftLeg  14.4329 11.5899 8.23012
LeftFoot  -4.94885 0.162522 -2.47186
LeftToes  -2.27483e-011 -5.53417e-011 9.36564e-012
575
root  8.23212 39.7219 -61.6534 178.342 9.50412 -178.678
RightUpLeg  -2.18759 -0.478778 3.94413
RightLeg  8.57191 -0.890872 -0.380621
RightFoot  -5.04461 0.0450156 -0.481661
RightToes  -5.82073e-011 -3.18055e-015 -2.98177e-016
Spine  5.65732 0.973449 2.1381
Spine1  2.55714 1.03154 2.11184
HEad  -14.6372 1.43485 2.74361
LeftShoulder1  -3.88251e-019 9.70628e-020 -3.87848e-018
LeftArm  -26.1575 61.215 -62.9745
LeftForeArm  -8.1386 -3.2257 -1.78177
LeftHand  -0.301336 0.747235 8.26943
RightShoulder  7.39408 10.4322 35.0705
RightArm  19.8583 -43.2715 20.5581
RightForeArm  -5.32833 21.5105 -10.9144
RightHand  -0.832792 0.401285 -16.2994
LeftUpLeg  -4.47206 2.70927 0.0511996
LeftLeg  13.6582 12.9941 8.14176
LeftFoot  -4.39991 0.150002 -2.12843
LeftToes  -2.27483e-011 -5.53417e-011 9.36564e-012
576
root  8.12546 39.7848 -61.6523 178.618 9.4978 -178.778
RightUpLeg  -2.11627 -0.364152 3.74602
RightLeg  7.66883 -1.04081 -0.239653
RightFoot  -4.36312 0.0459393 -0.50207
RightToes  -5.82073e-011 -3.18055e-015 -2.98177e-016
Spine  4.8917 1.4153 2.73489
Spine1  3.35547 1.67481 0.963186
HEad  -14.9865 0.0871192 2.73631
LeftShoulder1  -3.88251e-019 9.70628e-020 -3.87848e-018
LeftArm  -26.279 59.3097 -63.9924
LeftForeArm  -7.20644 -4.51998 -1.83561
LeftHand  -0.389202 0.191034 9.49378
RightShoulder  7.38199 10.4412 34.9889
RightArm  24.462 -41.2026 23.8976
RightForeArm  -3.67463 23.8808 -12.7657
RightHand  -1.01606 1.66602 -16.403
LeftUpLeg  -4.27754 1.36591 -0.337369
LeftLeg  12.7383 14.4737 7.9434
LeftFoot  -3.95461 0.144074 -1.93408
LeftToes  -2.27483e-011 -5.53417e-011 9.36564e-012
577
root  8.02145 39.8605 -61.6511 179.102 9.60605 -179.012
RightUpLeg  -2.2875 -0.194615 3.4576
RightLeg  6.67593 -1.11805 -0.123515
RightFoot  -3.61687 0.0569399 -0.618056
RightToes  -5.82073e-011 -3.18055e-015 -2.98177e-016
Spine  3.81223 1.96367 3.03699
Spine1  4.19899 2.38226 -0.0465694
HEad  -14.9402 -0.994043 2.82486
LeftShoulder1  -3.88251e-019 9.70628e-020 -3.87848e-018
LeftArm  -26.2917 57.1774 -65.0944
LeftForeArm  -6.24681 -6.0347 -2.01163
LeftHand  -0.463035 -0.379317 10.1177
RightShoulder  7.37718 10.4424 34.9618
RightArm  27.5388 -38.6155 26.8269
RightForeArm  -1.02693 25.8091 -13.8182
RightHand  -1.23144 2.82308 -17.1378
LeftUpLeg  -4.07452 0.0424704 -0.857788
LeftLeg  11.3036 16.1133 7.43877
LeftFoot  -3.31116 0.144847 -1.79792
LeftToes  -2.27483e-011 -5.53417e-011 9.36564e-012
578
root  7.93488 39.9506 -61.6418 179.612 9.5136 -179.365
RightUpLeg  -2.38777 -0.0566621 3.06332
RightLeg  5.4372 -1.31229 0.052824
RightFoot  -2.78001 0.0753658 -0.798277
RightToes  -5.82073e-011 -3.18055e-015 -2.98177e-016
Spine  2.80212 2.38703 2.87502
Spine1  4.83932 2.89737 -0.769283
HEad  -14.5049 -1.74371 2.97605
LeftShoulder1  -3.88251e-019 9.70628e-020 -3.87848e-018
LeftArm  -26.0288 55.2034 -66.126
LeftForeArm  -5.18826 -7.97316 -2.28962
LeftHand  -0.542253 -1.21087 10.2918
RightShoulder  7.34109 10.4151 34.8379
RightArm  29.6265 -35.9466 29.8289
RightForeArm  1.79298 26.8252 -14.4814
RightHand  -1.42475 3.93902 -17.4994
LeftUpLeg  -3.73836 -1.21798 -1.47384
LeftLeg  9.31545 17.5518 6.56615
LeftFoot  -2.34879 0.117636 -1.32176
LeftToes  -2.27483e-011 -5.53417e-011 9.36564e-012
579
root  7.85999 40.0467 -61.6288 179.965 9.04089 -179.676
RightUpLeg  -2.08408 -0.0165423 2.66256
RightLeg  3.89137 -1.782 0.409931
RightFoot  -1.86115 0.0946373 -0.96922
RightToes  -5.82073e-011 -3.18055e-015 -2.98177e-016
Spine  2.00431 2.56836 2.71839
Spine1  5.44944 3.19636 -1.5657
HEad  -14.3226 -2.30709 3.13602
LeftShoulder1  -3.88251e-019 9.70628e-020 -3.87848e-018
LeftArm  -25.5851 53.45 -67.0764
LeftForeArm  -4.03712 -10.485 -2.43062
LeftHand  -0.593242 -1.92045 10.1259
RightShoulder  7.27444 10.3708 34.5947
RightArm  30.2178 -33.6452 32.872
RightForeArm  4.63068 27.3238 -14.8737
RightHand  -1.52414 4.81976 -17.1332
LeftUpLeg  -3.1418 -2.12915 -2.01228
LeftLeg  6.99426 18.2973 5.44608
LeftFoot  -1.33897 0.0622789 -0.638705
LeftToes  -2.27483e-011 -5.53417e-011 9.36564e-012
580
root  7.77979 40.1312 -61.6205 -179.797 8.3127 -179.8
RightUpLeg  -1.51185 -0.0219194 2.38047
RightLeg  2.27768 -2.48197 0.919927
RightFoot  -0.97179 0.117017 -1.13522
RightToes  -5.82073e-011 -3.18055e-015 -2.98177e-016
Spine  1.54114 2.57085 2.9918
Spine1  5.83931 3.39525 -2.69503
HEad  -14.2331 -2.79218 3.39957
LeftShoulder1  -3.88251e-019 9.70628e-020 -3.87848e-018
LeftArm  -25.0179 51.9605 -67.9235
LeftForeArm  -2.64684 -13.3924 -2.35413
LeftHand  -0.593596 -2.31923 9.6
RightShoulder  7.19249 10.3238 34.2772
RightArm  29.5883 -32.1053 35.5336
RightForeArm  6.21767 27.8403 -15.2246
RightHand  -1.53329 5.24233 -16.57
LeftUpLeg  -2.44323 -2.5869 -2.35143
LeftLeg  4.71115 18.301 4.33711
LeftFoot  -0.538005 0.0219739 -0.209147
LeftToes  -2.27483e-011 -5.53417e-011 9.36564e-012
581
root  7.69534 40.1871 -61.612 -179.517 7.48569 -179.787
RightUpLeg  -1.17256 -0.00193298 2.22882
RightLeg  1.10934 -3.29678 1.34092
RightFoot  -0.304572 0.14292 -1.32674
RightToes  -5.82073e-011 -3.18055e-015 -2.98177e-016
Spine  1.32742 2.50555 3.34756
Spine1  5.91905 3.49107 -3.65554
HEad  -14.3159 -3.1453 3.62665
LeftShoulder1  -3.88251e-019 9.70628e-020 -3.87848e-018
LeftArm  -24.27 50.6436 -68.8007
LeftForeArm  -1.28105 -16.1786 -2.14832
LeftHand  -0.590231 -2.77632 9.01045
RightShoulder  7.08948 10.2679 33.8677
RightArm  28.554 -31.2636 37.6076
RightForeArm  5.71148 28.5031 -15.5713
RightHand  -1.50019 5.13227 -16.3861
LeftUpLeg  -2.07562 -2.77687 -2.53366
LeftLeg  2.99424 17.8579 3.53479
LeftFoot  0.0136903 0.0145547 -0.119757
LeftToes  -2.27483e-011 -5.53417e-011 9.36564e-012
582
root  7.62406 40.2097 -61.5913 -179.192 6.50301 -179.802
RightUpLeg  -1.31188 0.0121405 2.10743
RightLeg  0.75313 -4.24749 1.43289
RightFoot  -0.00813371 0.162567 -1.47589
RightToes  -5.82073e-011 -3.18055e-015 -2.98177e-016
Spine  1.07582 2.39165 3.20512
Spine1  6.09798 3.39952 -3.88232
HEad  -14.6993 -3.38794 3.81963
LeftShoulder1  -3.88251e-019 9.70628e-020 -3.87848e-018
LeftArm  -22.9816 49.2245 -69.8762
LeftForeArm  -0.926724 -18.4062 -1.70129
LeftHand  -0.631369 -3.49089 8.84236
RightShoulder  7.04041 10.2517 33.6485
RightArm  27.7192 -30.5818 38.9307
RightForeArm  4.13161 29.1338 -15.8586
RightHand  -1.46929 4.84215 -16.4927
LeftUpLeg  -2.2756 -2.95372 -2.69598
LeftLeg  2.24446 17.1734 3.20923
LeftFoot  0.319581 0.0152503 -0.122245
LeftToes  -2.27483e-011 -5.53417e-011 9.36564e-012
